<svg width="400" height="406" viewBox="0 0 400 406" fill="none" xmlns="http://www.w3.org/2000/svg">
<rect y="256" width="50" height="50" fill="black"/>
<rect width="50" height="50" transform="matrix(-1 0 0 1 400 256)" fill="black"/>
<rect x="100" y="206" width="50" height="100" fill="#E07D1F"/>
<rect y="106" width="50" height="100" fill="#CB6920"/>
<rect width="50" height="84" fill="#F9F5F6"/>
<rect x="350" width="50" height="84" fill="#F9F5F6"/>
<rect x="350" y="106" width="50" height="100" fill="#CB6920"/>
<rect x="250" y="206" width="50" height="100" fill="#E07D1F"/>
<rect x="50" y="256" width="50" height="50" fill="white"/>
<rect x="50" width="50" height="42" fill="#F9F5F6"/>
<rect x="50" y="206" width="50" height="50" fill="#CB6920"/>
<rect x="50" y="34" width="50" height="50" fill="#B38F81"/>
<rect x="300" y="34" width="50" height="50" fill="#B38F81"/>
<rect x="350" y="84" width="50" height="23" fill="#C86217"/>
<rect y="84" width="50" height="23" fill="#C86217"/>
<rect y="206" width="50" height="50" fill="#B05121"/>
<rect x="350" y="206" width="50" height="50" fill="#B05121"/>
<rect x="300" y="206" width="50" height="50" fill="#CB6920"/>
<rect width="50" height="50" transform="matrix(-1 0 0 1 350 256)" fill="white"/>
<rect width="50" height="42" transform="matrix(-1 0 0 1 350 0)" fill="#F9F5F6"/>
<rect x="100" y="306" width="50" height="50" fill="#EAD7D3"/>
<rect x="250" y="306" width="50" height="50" fill="#EAD7D3"/>
<rect y="306" width="100" height="50" fill="#CB6920"/>
<rect x="300" y="306" width="100" height="50" fill="#CB6920"/>
<rect y="356" width="100" height="50" fill="#E9D8D1"/>
<rect x="300" y="356" width="100" height="50" fill="#E9D8D1"/>
<rect x="100" y="356" width="200" height="50" fill="#F9F5F2"/>
<rect x="150" y="306" width="100" height="50" fill="black"/>
<rect x="150" y="256" width="100" height="50" fill="#E88E42"/>
<rect x="150" y="206" width="100" height="50" fill="#E07D1F"/>
<rect x="50" y="156" width="300" height="50" fill="#E07D1F"/>
<rect x="50" y="107" width="300" height="50" fill="#E07D1F"/>
<rect x="50" y="84" width="300" height="23" fill="#E07D1F"/>
</svg>
