<svg width="370" height="84" viewBox="0 0 370 84" fill="none" xmlns="http://www.w3.org/2000/svg">
<path d="M45 35V10H50V35H45ZM40 10V5H45V10H40ZM50 10V5H55V10H50ZM35 5V0H40V5H35ZM55 5V0H60V5H55ZM70 35V30H85V35H70ZM65 30V15H70V30H65ZM85 30V15H90V30H85ZM70 15V10H85V15H70ZM95 30V10H100V30H95ZM100 35V30H115V10H120V35H100ZM135 30V25H140V30H135ZM140 35V30H155V25H140V20H155V15H160V35H140ZM140 15V10H155V15H140ZM185 20V15H190V20H185ZM165 35V10H170V15H175V20H170V35H165ZM175 15V10H185V15H175ZM200 35V30H220V35H200ZM195 30V15H200V20H215V15H220V25H200V30H195ZM200 15V10H215V15H200ZM255 20V15H260V20H255ZM235 35V10H240V15H245V20H240V35H235ZM245 15V10H255V15H245ZM270 35V30H290V35H270ZM265 30V15H270V20H285V15H290V25H270V30H265ZM270 15V10H285V15H270ZM295 30V25H300V30H295ZM300 35V30H315V25H300V20H315V15H320V35H300ZM300 15V10H315V15H300ZM330 35V30H335V35H330ZM325 30V0H330V30H325ZM10 79V54H15V79H10ZM5 54V49H10V54H5ZM15 54V49H20V54H15ZM0 49V44H5V49H0ZM20 49V44H25V49H20ZM35 79V74H50V79H35ZM30 74V59H35V74H30ZM50 74V59H55V74H50ZM35 59V54H50V59H35ZM60 74V54H65V74H60ZM65 79V74H80V54H85V79H65ZM100 74V69H105V74H100ZM105 79V74H120V69H105V64H120V59H125V79H105ZM105 59V54H120V59H105ZM150 64V59H155V64H150ZM130 79V54H135V59H140V64H135V79H130ZM140 59V54H150V59H140ZM165 79V74H185V79H165ZM160 74V59H165V64H180V59H185V69H165V74H160ZM165 59V54H180V59H165ZM200 79V74H220V79H200ZM220 74V69H225V74H220ZM205 69V64H220V69H205ZM200 64V59H205V64H200ZM205 59V54H225V59H205ZM250 69V59H255V69H250ZM230 84V54H235V59H240V64H235V69H250V74H235V84H230ZM240 59V54H250V59H240ZM265 79V74H285V79H265ZM260 74V59H265V64H280V59H285V69H265V74H260ZM265 59V54H280V59H265ZM295 79V74H310V79H295ZM310 74V69H315V74H310ZM290 74V59H295V74H290ZM310 64V59H315V64H310ZM295 59V54H310V59H295ZM320 79V54H325V79H320ZM320 49V44H325V49H320ZM330 74V69H335V74H330ZM335 79V74H350V69H335V64H350V59H355V79H335ZM335 59V54H350V59H335ZM365 79V74H370V79H365ZM360 74V44H365V74H360Z" fill="#E4E6D8"/>
</svg>
